<svg width="48" height="48" viewBox="0 0 48 48" fill="none" xmlns="http://www.w3.org/2000/svg">
<path d="M20.4236 9.60032C20.1054 9.60032 19.8 9.72675 19.575 9.95175C19.3501 10.1767 19.2236 10.4821 19.2236 10.8003V25.38L16.5595 22.0558C16.3645 21.7963 16.0725 21.6267 15.7503 21.586C15.428 21.5456 15.1031 21.6372 14.8497 21.8402C14.5963 22.0432 14.4362 22.3406 14.4053 22.6639C14.3748 22.9872 14.4766 23.3089 14.6877 23.5559L19.4877 29.5559C19.7164 29.8379 20.0603 30.0013 20.4235 30C20.7417 30 21.0471 29.8735 21.2721 29.6485C21.4971 29.4235 21.6235 29.1182 21.6235 28.8V10.8C21.6235 10.4818 21.4971 10.1764 21.2721 9.9514C21.0471 9.72641 20.7417 9.59998 20.4235 9.59998L20.4236 9.60032Z" fill="#EBECE8"/>
<path d="M33.3596 23.2563L28.5596 17.2563C28.3515 16.9971 28.0451 16.8355 27.7135 16.8106C27.3816 16.786 27.0545 16.8998 26.81 17.1254C26.5654 17.3509 26.4256 17.6678 26.4237 18.0005V37.2005C26.4237 37.6293 26.6525 38.0254 27.0237 38.2397C27.395 38.454 27.8525 38.454 28.2237 38.2397C28.595 38.0254 28.8237 37.6293 28.8237 37.2005V21.4208L31.4878 24.7449C31.6828 25.0045 31.9748 25.174 32.2971 25.2148C32.6193 25.2552 32.9442 25.1636 33.1976 24.9606C33.451 24.7575 33.6112 24.4602 33.642 24.1369C33.6725 23.8136 33.5707 23.4919 33.3597 23.2449L33.3596 23.2563Z" fill="#EBECE8"/>
</svg>
